<svg xmlns="http://www.w3.org/2000/svg" xmlns:xlink="http://www.w3.org/1999/xlink" width="500" zoomAndPan="magnify" viewBox="0 0 375 374.999991" height="500" preserveAspectRatio="xMidYMid meet" version="1.2"><defs><clipPath id="c3cb3ec837"><path d="M 137 178 L 252.410156 178 L 252.410156 208.960938 L 137 208.960938 Z M 137 178 "/></clipPath><clipPath id="05f9be4218"><path d="M 183 64.210938 L 207 64.210938 L 207 111 L 183 111 Z M 183 64.210938 "/></clipPath></defs><g id="9064253425"><rect x="0" width="375" y="0" height="374.999991" style="fill:#ffffff;fill-opacity:1;stroke:none;"/><rect x="0" width="375" y="0" height="374.999991" style="fill:#283c10;fill-opacity:1;stroke:none;"/><g clip-rule="nonzero" clip-path="url(#c3cb3ec837)"><path style=" stroke:none;fill-rule:nonzero;fill:#d9d9d9;fill-opacity:1;" d="M 158.0625 179.265625 C 158.792969 180.085938 159.539062 180.878906 160.308594 181.644531 C 151.804688 183.75 146.554688 186.632812 146.554688 189.8125 C 146.554688 196.261719 168.164062 201.492188 194.816406 201.492188 C 221.46875 201.492188 243.074219 196.261719 243.074219 189.8125 C 243.074219 186.414062 237.085938 183.355469 227.523438 181.222656 C 228.28125 180.453125 229.015625 179.660156 229.730469 178.839844 C 243.515625 181.898438 252.417969 186.722656 252.417969 192.148438 C 252.417969 201.394531 226.628906 208.886719 194.816406 208.886719 C 163.003906 208.886719 137.214844 201.394531 137.214844 192.148438 C 137.214844 186.964844 145.328125 182.335938 158.0625 179.265625 "/></g><path style=" stroke:none;fill-rule:nonzero;fill:#d9d9d9;fill-opacity:1;" d="M 124.304688 124.6875 C 133.03125 122.550781 141.953125 125.742188 148.304688 132.332031 C 160.898438 136.636719 181.945312 136.945312 204.941406 132.277344 C 218.046875 129.617188 229.933594 125.714844 239.578125 121.210938 C 241.035156 126.492188 241.820312 132.113281 241.820312 137.945312 C 241.820312 168.484375 220.289062 193.238281 193.730469 193.238281 C 168 193.238281 148.726562 173.722656 145.695312 140.648438 C 141.125 134.191406 133.582031 130.753906 126.226562 132.550781 C 116.242188 134.992188 110.390625 146.148438 113.160156 157.464844 C 115.925781 168.785156 124.933594 181.757812 143.183594 179.527344 C 141.613281 180.335938 139.945312 180.972656 138.171875 181.40625 C 124.359375 184.785156 110.050781 174.824219 106.222656 159.164062 C 102.390625 143.5 110.488281 128.066406 124.304688 124.6875 "/><path style=" stroke:none;fill-rule:nonzero;fill:#27963c;fill-opacity:1;" d="M 218.445312 104.03125 C 218.445312 104.03125 208.386719 111.894531 205.953125 127.0625 C 218.335938 128.164062 219.339844 116.824219 221.167969 108.285156 C 222.222656 103.367188 226.976562 99.25 226.976562 99.25 C 226.976562 99.25 193.703125 102.085938 201.863281 126.339844 C 201.863281 126.339844 205.90625 109.703125 218.445312 104.03125 "/><path style=" stroke:none;fill-rule:nonzero;fill:#27963c;fill-opacity:1;" d="M 170.972656 104.03125 C 170.972656 104.03125 181.039062 111.894531 183.46875 127.0625 C 171.085938 128.164062 170.082031 116.824219 168.253906 108.285156 C 167.199219 103.367188 162.445312 99.25 162.445312 99.25 C 162.445312 99.25 195.71875 102.085938 187.558594 126.339844 C 187.558594 126.339844 183.515625 109.703125 170.972656 104.03125 "/><g clip-rule="nonzero" clip-path="url(#05f9be4218)"><path style=" stroke:none;fill-rule:nonzero;fill:#27963c;fill-opacity:1;" d="M 192.71875 75.101562 C 192.71875 75.101562 199.46875 90.34375 192.945312 109.304688 C 178.011719 102.964844 183.824219 89.292969 186.96875 78.332031 C 188.777344 72.019531 185.832031 64.355469 185.832031 64.355469 C 185.832031 64.355469 222.410156 88.074219 198.101562 110.988281 C 198.101562 110.988281 203.667969 89.34375 192.71875 75.101562 "/></g><g style="fill:#d9d9d9;fill-opacity:1;"><g transform="translate(70.151616, 244.04156)"><path style="stroke:none" d="M 15.125 -25.625 C 17.0625 -25.625 18.710938 -25.378906 20.078125 -24.890625 C 21.453125 -24.398438 22.679688 -23.695312 23.765625 -22.78125 C 24.003906 -22.59375 24.207031 -22.351562 24.375 -22.0625 C 24.539062 -21.78125 24.625 -21.4375 24.625 -21.03125 C 24.625 -20.40625 24.410156 -19.882812 23.984375 -19.46875 C 23.566406 -19.0625 23.046875 -18.859375 22.421875 -18.859375 C 21.867188 -18.859375 21.425781 -19.003906 21.09375 -19.296875 C 20.257812 -20.035156 19.351562 -20.597656 18.375 -20.984375 C 17.40625 -21.367188 16.304688 -21.5625 15.078125 -21.5625 C 13.878906 -21.5625 12.769531 -21.328125 11.75 -20.859375 C 10.726562 -20.390625 9.851562 -19.753906 9.125 -18.953125 C 8.394531 -18.148438 7.816406 -17.207031 7.390625 -16.125 C 6.972656 -15.050781 6.765625 -13.898438 6.765625 -12.671875 L 6.765625 -12.59375 C 6.765625 -11.375 6.972656 -10.21875 7.390625 -9.125 C 7.816406 -8.03125 8.394531 -7.082031 9.125 -6.28125 C 9.851562 -5.476562 10.726562 -4.84375 11.75 -4.375 C 12.769531 -3.90625 13.878906 -3.671875 15.078125 -3.671875 C 16.453125 -3.671875 17.617188 -3.867188 18.578125 -4.265625 C 19.535156 -4.660156 20.472656 -5.265625 21.390625 -6.078125 C 21.554688 -6.222656 21.75 -6.34375 21.96875 -6.4375 C 22.195312 -6.539062 22.445312 -6.59375 22.71875 -6.59375 C 23.269531 -6.59375 23.753906 -6.382812 24.171875 -5.96875 C 24.585938 -5.5625 24.796875 -5.082031 24.796875 -4.53125 C 24.796875 -4.195312 24.722656 -3.894531 24.578125 -3.625 C 24.441406 -3.363281 24.273438 -3.140625 24.078125 -2.953125 C 22.878906 -1.898438 21.566406 -1.070312 20.140625 -0.46875 C 18.710938 0.132812 16.976562 0.4375 14.9375 0.4375 C 13.113281 0.4375 11.414062 0.101562 9.84375 -0.5625 C 8.269531 -1.238281 6.910156 -2.160156 5.765625 -3.328125 C 4.628906 -4.492188 3.738281 -5.867188 3.09375 -7.453125 C 2.445312 -9.035156 2.125 -10.726562 2.125 -12.53125 L 2.125 -12.59375 C 2.125 -14.394531 2.441406 -16.082031 3.078125 -17.65625 C 3.710938 -19.226562 4.601562 -20.609375 5.75 -21.796875 C 6.90625 -22.984375 8.28125 -23.914062 9.875 -24.59375 C 11.476562 -25.28125 13.226562 -25.625 15.125 -25.625 Z M 15.125 -25.625 "/></g></g><g style="fill:#d9d9d9;fill-opacity:1;"><g transform="translate(94.991656, 244.04156)"><path style="stroke:none" d="M 4.890625 -26.453125 C 5.515625 -26.453125 6.035156 -26.242188 6.453125 -25.828125 C 6.878906 -25.410156 7.09375 -24.898438 7.09375 -24.296875 L 7.09375 -16.09375 C 7.71875 -16.976562 8.488281 -17.75 9.40625 -18.40625 C 10.332031 -19.070312 11.539062 -19.40625 13.03125 -19.40625 C 15.21875 -19.40625 16.890625 -18.753906 18.046875 -17.453125 C 19.210938 -16.160156 19.796875 -14.382812 19.796875 -12.125 L 19.796875 -1.984375 C 19.796875 -1.359375 19.59375 -0.835938 19.1875 -0.421875 C 18.78125 -0.015625 18.265625 0.1875 17.640625 0.1875 C 17.015625 0.1875 16.488281 -0.015625 16.0625 -0.421875 C 15.644531 -0.835938 15.4375 -1.359375 15.4375 -1.984375 L 15.4375 -10.796875 C 15.4375 -12.304688 15.082031 -13.457031 14.375 -14.25 C 13.664062 -15.039062 12.664062 -15.4375 11.375 -15.4375 C 10.082031 -15.4375 9.046875 -15.03125 8.265625 -14.21875 C 7.484375 -13.40625 7.09375 -12.242188 7.09375 -10.734375 L 7.09375 -1.984375 C 7.09375 -1.359375 6.878906 -0.835938 6.453125 -0.421875 C 6.035156 -0.015625 5.515625 0.1875 4.890625 0.1875 C 4.296875 0.1875 3.785156 -0.015625 3.359375 -0.421875 C 2.941406 -0.835938 2.734375 -1.359375 2.734375 -1.984375 L 2.734375 -24.296875 C 2.734375 -24.898438 2.9375 -25.410156 3.34375 -25.828125 C 3.75 -26.242188 4.265625 -26.453125 4.890625 -26.453125 Z M 4.890625 -26.453125 "/></g></g><g style="fill:#d9d9d9;fill-opacity:1;"><g transform="translate(115.583684, 244.04156)"><path style="stroke:none" d="M 1.46875 -5.546875 C 1.46875 -6.578125 1.660156 -7.472656 2.046875 -8.234375 C 2.429688 -9.003906 2.96875 -9.640625 3.65625 -10.140625 C 4.34375 -10.648438 5.171875 -11.03125 6.140625 -11.28125 C 7.109375 -11.53125 8.171875 -11.65625 9.328125 -11.65625 C 10.398438 -11.65625 11.332031 -11.582031 12.125 -11.4375 C 12.914062 -11.300781 13.6875 -11.113281 14.4375 -10.875 L 14.4375 -11.34375 C 14.4375 -12.707031 14.035156 -13.738281 13.234375 -14.4375 C 12.429688 -15.132812 11.257812 -15.484375 9.71875 -15.484375 C 8.875 -15.484375 8.113281 -15.40625 7.4375 -15.25 C 6.769531 -15.09375 6.128906 -14.914062 5.515625 -14.71875 C 5.265625 -14.644531 5.035156 -14.609375 4.828125 -14.609375 C 4.316406 -14.609375 3.878906 -14.78125 3.515625 -15.125 C 3.160156 -15.476562 2.984375 -15.910156 2.984375 -16.421875 C 2.984375 -16.828125 3.097656 -17.1875 3.328125 -17.5 C 3.554688 -17.8125 3.835938 -18.023438 4.171875 -18.140625 C 5.085938 -18.472656 6.023438 -18.742188 6.984375 -18.953125 C 7.941406 -19.160156 9.046875 -19.265625 10.296875 -19.265625 C 12.960938 -19.265625 15.019531 -18.613281 16.46875 -17.3125 C 17.914062 -16.019531 18.640625 -14.003906 18.640625 -11.265625 L 18.640625 -1.90625 C 18.640625 -1.3125 18.4375 -0.8125 18.03125 -0.40625 C 17.625 -0.0078125 17.125 0.1875 16.53125 0.1875 C 15.90625 0.1875 15.394531 0 15 -0.375 C 14.601562 -0.75 14.40625 -1.175781 14.40625 -1.65625 L 14.40625 -2.375 C 13.75 -1.601562 12.914062 -0.945312 11.90625 -0.40625 C 10.90625 0.125 9.671875 0.390625 8.203125 0.390625 C 7.316406 0.390625 6.460938 0.265625 5.640625 0.015625 C 4.828125 -0.234375 4.113281 -0.601562 3.5 -1.09375 C 2.894531 -1.59375 2.40625 -2.207031 2.03125 -2.9375 C 1.65625 -3.664062 1.46875 -4.507812 1.46875 -5.46875 Z M 5.71875 -5.71875 L 5.71875 -5.65625 C 5.71875 -4.738281 6.066406 -4.023438 6.765625 -3.515625 C 7.460938 -3.015625 8.351562 -2.765625 9.4375 -2.765625 C 10.15625 -2.765625 10.828125 -2.859375 11.453125 -3.046875 C 12.078125 -3.242188 12.609375 -3.519531 13.046875 -3.875 C 13.492188 -4.238281 13.847656 -4.671875 14.109375 -5.171875 C 14.378906 -5.679688 14.515625 -6.238281 14.515625 -6.84375 L 14.515625 -8.140625 C 13.960938 -8.347656 13.316406 -8.523438 12.578125 -8.671875 C 11.847656 -8.816406 11.050781 -8.890625 10.1875 -8.890625 C 8.75 -8.890625 7.644531 -8.613281 6.875 -8.0625 C 6.101562 -7.507812 5.71875 -6.726562 5.71875 -5.71875 Z M 5.71875 -5.71875 "/></g></g><g style="fill:#d9d9d9;fill-opacity:1;"><g transform="translate(134.987713, 244.04156)"><path style="stroke:none" d="M 2.984375 -17.03125 C 2.984375 -17.65625 3.1875 -18.175781 3.59375 -18.59375 C 4.007812 -19.007812 4.523438 -19.21875 5.140625 -19.21875 C 5.765625 -19.21875 6.285156 -19.007812 6.703125 -18.59375 C 7.128906 -18.175781 7.34375 -17.65625 7.34375 -17.03125 L 7.34375 -1.984375 C 7.34375 -1.359375 7.128906 -0.835938 6.703125 -0.421875 C 6.285156 -0.015625 5.765625 0.1875 5.140625 0.1875 C 4.546875 0.1875 4.035156 -0.015625 3.609375 -0.421875 C 3.191406 -0.835938 2.984375 -1.359375 2.984375 -1.984375 Z M 5.140625 -26.25 C 5.835938 -26.25 6.425781 -26.054688 6.90625 -25.671875 C 7.382812 -25.285156 7.625 -24.769531 7.625 -24.125 L 7.625 -23.90625 C 7.625 -23.257812 7.382812 -22.738281 6.90625 -22.34375 C 6.425781 -21.945312 5.835938 -21.75 5.140625 -21.75 C 4.453125 -21.75 3.863281 -21.945312 3.375 -22.34375 C 2.894531 -22.738281 2.65625 -23.257812 2.65625 -23.90625 L 2.65625 -24.125 C 2.65625 -24.769531 2.894531 -25.285156 3.375 -25.671875 C 3.863281 -26.054688 4.453125 -26.25 5.140625 -26.25 Z M 5.140625 -26.25 "/></g></g><g style="fill:#d9d9d9;fill-opacity:1;"><g transform="translate(143.555721, 244.04156)"><path style="stroke:none" d=""/></g></g><g style="fill:#d9d9d9;fill-opacity:1;"><g transform="translate(149.387721, 244.04156)"><path style="stroke:none" d="M 3.234375 -23.1875 C 3.234375 -23.8125 3.445312 -24.332031 3.875 -24.75 C 4.3125 -25.164062 4.84375 -25.375 5.46875 -25.375 C 6.09375 -25.375 6.613281 -25.164062 7.03125 -24.75 C 7.457031 -24.332031 7.671875 -23.8125 7.671875 -23.1875 L 7.671875 -4.03125 L 19.078125 -4.03125 C 19.628906 -4.03125 20.101562 -3.832031 20.5 -3.4375 C 20.894531 -3.039062 21.09375 -2.566406 21.09375 -2.015625 C 21.09375 -1.460938 20.894531 -0.988281 20.5 -0.59375 C 20.101562 -0.195312 19.628906 0 19.078125 0 L 5.46875 0 C 4.84375 0 4.3125 -0.210938 3.875 -0.640625 C 3.445312 -1.078125 3.234375 -1.609375 3.234375 -2.234375 Z M 3.234375 -23.1875 "/></g></g><g style="fill:#d9d9d9;fill-opacity:1;"><g transform="translate(169.943758, 244.04156)"><path style="stroke:none" d="M 1.46875 -5.546875 C 1.46875 -6.578125 1.660156 -7.472656 2.046875 -8.234375 C 2.429688 -9.003906 2.96875 -9.640625 3.65625 -10.140625 C 4.34375 -10.648438 5.171875 -11.03125 6.140625 -11.28125 C 7.109375 -11.53125 8.171875 -11.65625 9.328125 -11.65625 C 10.398438 -11.65625 11.332031 -11.582031 12.125 -11.4375 C 12.914062 -11.300781 13.6875 -11.113281 14.4375 -10.875 L 14.4375 -11.34375 C 14.4375 -12.707031 14.035156 -13.738281 13.234375 -14.4375 C 12.429688 -15.132812 11.257812 -15.484375 9.71875 -15.484375 C 8.875 -15.484375 8.113281 -15.40625 7.4375 -15.25 C 6.769531 -15.09375 6.128906 -14.914062 5.515625 -14.71875 C 5.265625 -14.644531 5.035156 -14.609375 4.828125 -14.609375 C 4.316406 -14.609375 3.878906 -14.78125 3.515625 -15.125 C 3.160156 -15.476562 2.984375 -15.910156 2.984375 -16.421875 C 2.984375 -16.828125 3.097656 -17.1875 3.328125 -17.5 C 3.554688 -17.8125 3.835938 -18.023438 4.171875 -18.140625 C 5.085938 -18.472656 6.023438 -18.742188 6.984375 -18.953125 C 7.941406 -19.160156 9.046875 -19.265625 10.296875 -19.265625 C 12.960938 -19.265625 15.019531 -18.613281 16.46875 -17.3125 C 17.914062 -16.019531 18.640625 -14.003906 18.640625 -11.265625 L 18.640625 -1.90625 C 18.640625 -1.3125 18.4375 -0.8125 18.03125 -0.40625 C 17.625 -0.0078125 17.125 0.1875 16.53125 0.1875 C 15.90625 0.1875 15.394531 0 15 -0.375 C 14.601562 -0.75 14.40625 -1.175781 14.40625 -1.65625 L 14.40625 -2.375 C 13.75 -1.601562 12.914062 -0.945312 11.90625 -0.40625 C 10.90625 0.125 9.671875 0.390625 8.203125 0.390625 C 7.316406 0.390625 6.460938 0.265625 5.640625 0.015625 C 4.828125 -0.234375 4.113281 -0.601562 3.5 -1.09375 C 2.894531 -1.59375 2.40625 -2.207031 2.03125 -2.9375 C 1.65625 -3.664062 1.46875 -4.507812 1.46875 -5.46875 Z M 5.71875 -5.71875 L 5.71875 -5.65625 C 5.71875 -4.738281 6.066406 -4.023438 6.765625 -3.515625 C 7.460938 -3.015625 8.351562 -2.765625 9.4375 -2.765625 C 10.15625 -2.765625 10.828125 -2.859375 11.453125 -3.046875 C 12.078125 -3.242188 12.609375 -3.519531 13.046875 -3.875 C 13.492188 -4.238281 13.847656 -4.671875 14.109375 -5.171875 C 14.378906 -5.679688 14.515625 -6.238281 14.515625 -6.84375 L 14.515625 -8.140625 C 13.960938 -8.347656 13.316406 -8.523438 12.578125 -8.671875 C 11.847656 -8.816406 11.050781 -8.890625 10.1875 -8.890625 C 8.75 -8.890625 7.644531 -8.613281 6.875 -8.0625 C 6.101562 -7.507812 5.71875 -6.726562 5.71875 -5.71875 Z M 5.71875 -5.71875 "/></g></g><g style="fill:#d9d9d9;fill-opacity:1;"><g transform="translate(189.347787, 244.04156)"><path style="stroke:none" d="M 2.515625 -6.90625 L 2.515625 -17.03125 C 2.515625 -17.65625 2.722656 -18.175781 3.140625 -18.59375 C 3.566406 -19.007812 4.082031 -19.21875 4.6875 -19.21875 C 5.300781 -19.21875 5.816406 -19.007812 6.234375 -18.59375 C 6.660156 -18.175781 6.875 -17.65625 6.875 -17.03125 L 6.875 -8.203125 C 6.875 -6.691406 7.226562 -5.546875 7.9375 -4.765625 C 8.644531 -3.984375 9.644531 -3.59375 10.9375 -3.59375 C 12.238281 -3.59375 13.28125 -3.992188 14.0625 -4.796875 C 14.84375 -5.609375 15.234375 -6.769531 15.234375 -8.28125 L 15.234375 -17.03125 C 15.234375 -17.65625 15.441406 -18.175781 15.859375 -18.59375 C 16.273438 -19.007812 16.796875 -19.21875 17.421875 -19.21875 C 18.023438 -19.21875 18.539062 -19.007812 18.96875 -18.59375 C 19.40625 -18.175781 19.625 -17.65625 19.625 -17.03125 L 19.625 -1.984375 C 19.625 -1.378906 19.410156 -0.863281 18.984375 -0.4375 C 18.566406 -0.0195312 18.046875 0.1875 17.421875 0.1875 C 16.828125 0.1875 16.3125 -0.015625 15.875 -0.421875 C 15.445312 -0.835938 15.234375 -1.359375 15.234375 -1.984375 L 15.234375 -2.953125 C 14.609375 -2.035156 13.828125 -1.25 12.890625 -0.59375 C 11.953125 0.0625 10.75 0.390625 9.28125 0.390625 C 7.101562 0.390625 5.429688 -0.257812 4.265625 -1.5625 C 3.097656 -2.875 2.515625 -4.65625 2.515625 -6.90625 Z M 2.515625 -6.90625 "/></g></g><g style="fill:#d9d9d9;fill-opacity:1;"><g transform="translate(209.939815, 244.04156)"><path style="stroke:none" d="M 4.890625 -19.21875 C 5.515625 -19.21875 6.035156 -19.007812 6.453125 -18.59375 C 6.878906 -18.175781 7.09375 -17.65625 7.09375 -17.03125 L 7.09375 -16.09375 C 7.71875 -16.976562 8.488281 -17.75 9.40625 -18.40625 C 10.332031 -19.070312 11.539062 -19.40625 13.03125 -19.40625 C 15.21875 -19.40625 16.890625 -18.753906 18.046875 -17.453125 C 19.210938 -16.160156 19.796875 -14.382812 19.796875 -12.125 L 19.796875 -1.984375 C 19.796875 -1.359375 19.59375 -0.835938 19.1875 -0.421875 C 18.78125 -0.015625 18.265625 0.1875 17.640625 0.1875 C 17.015625 0.1875 16.488281 -0.015625 16.0625 -0.421875 C 15.644531 -0.835938 15.4375 -1.359375 15.4375 -1.984375 L 15.4375 -10.796875 C 15.4375 -12.304688 15.082031 -13.457031 14.375 -14.25 C 13.664062 -15.039062 12.664062 -15.4375 11.375 -15.4375 C 10.082031 -15.4375 9.046875 -15.03125 8.265625 -14.21875 C 7.484375 -13.40625 7.09375 -12.242188 7.09375 -10.734375 L 7.09375 -1.984375 C 7.09375 -1.359375 6.878906 -0.835938 6.453125 -0.421875 C 6.035156 -0.015625 5.515625 0.1875 4.890625 0.1875 C 4.296875 0.1875 3.785156 -0.015625 3.359375 -0.421875 C 2.941406 -0.835938 2.734375 -1.359375 2.734375 -1.984375 L 2.734375 -17.03125 C 2.734375 -17.65625 2.9375 -18.175781 3.34375 -18.59375 C 3.75 -19.007812 4.265625 -19.21875 4.890625 -19.21875 Z M 4.890625 -19.21875 "/></g></g><g style="fill:#d9d9d9;fill-opacity:1;"><g transform="translate(230.531843, 244.04156)"><path style="stroke:none" d="M 11.59375 -19.40625 C 13.101562 -19.40625 14.382812 -19.179688 15.4375 -18.734375 C 16.5 -18.296875 17.4375 -17.726562 18.25 -17.03125 C 18.394531 -16.90625 18.546875 -16.710938 18.703125 -16.453125 C 18.859375 -16.191406 18.9375 -15.878906 18.9375 -15.515625 C 18.9375 -14.960938 18.738281 -14.492188 18.34375 -14.109375 C 17.945312 -13.722656 17.472656 -13.53125 16.921875 -13.53125 C 16.390625 -13.53125 15.957031 -13.675781 15.625 -13.96875 C 15.070312 -14.445312 14.472656 -14.835938 13.828125 -15.140625 C 13.179688 -15.441406 12.425781 -15.59375 11.5625 -15.59375 C 10.769531 -15.59375 10.035156 -15.425781 9.359375 -15.09375 C 8.691406 -14.769531 8.109375 -14.335938 7.609375 -13.796875 C 7.117188 -13.265625 6.734375 -12.628906 6.453125 -11.890625 C 6.179688 -11.160156 6.046875 -10.378906 6.046875 -9.546875 L 6.046875 -9.46875 C 6.046875 -8.625 6.179688 -7.828125 6.453125 -7.078125 C 6.734375 -6.335938 7.125 -5.691406 7.625 -5.140625 C 8.132812 -4.585938 8.734375 -4.15625 9.421875 -3.84375 C 10.117188 -3.539062 10.890625 -3.390625 11.734375 -3.390625 C 13.441406 -3.390625 14.859375 -3.953125 15.984375 -5.078125 C 16.097656 -5.191406 16.257812 -5.296875 16.46875 -5.390625 C 16.675781 -5.492188 16.910156 -5.546875 17.171875 -5.546875 C 17.703125 -5.546875 18.144531 -5.359375 18.5 -4.984375 C 18.863281 -4.609375 19.046875 -4.160156 19.046875 -3.640625 C 19.046875 -3.054688 18.84375 -2.597656 18.4375 -2.265625 C 17.59375 -1.453125 16.625 -0.796875 15.53125 -0.296875 C 14.4375 0.191406 13.097656 0.4375 11.515625 0.4375 C 10.097656 0.4375 8.789062 0.179688 7.59375 -0.328125 C 6.394531 -0.847656 5.359375 -1.550781 4.484375 -2.4375 C 3.609375 -3.332031 2.921875 -4.378906 2.421875 -5.578125 C 1.929688 -6.773438 1.6875 -8.046875 1.6875 -9.390625 L 1.6875 -9.46875 C 1.6875 -10.8125 1.929688 -12.085938 2.421875 -13.296875 C 2.921875 -14.515625 3.613281 -15.570312 4.5 -16.46875 C 5.382812 -17.363281 6.425781 -18.078125 7.625 -18.609375 C 8.832031 -19.140625 10.15625 -19.40625 11.59375 -19.40625 Z M 11.59375 -19.40625 "/></g></g><g style="fill:#d9d9d9;fill-opacity:1;"><g transform="translate(249.359867, 244.04156)"><path style="stroke:none" d="M 4.890625 -26.453125 C 5.515625 -26.453125 6.035156 -26.242188 6.453125 -25.828125 C 6.878906 -25.410156 7.09375 -24.898438 7.09375 -24.296875 L 7.09375 -16.09375 C 7.71875 -16.976562 8.488281 -17.75 9.40625 -18.40625 C 10.332031 -19.070312 11.539062 -19.40625 13.03125 -19.40625 C 15.21875 -19.40625 16.890625 -18.753906 18.046875 -17.453125 C 19.210938 -16.160156 19.796875 -14.382812 19.796875 -12.125 L 19.796875 -1.984375 C 19.796875 -1.359375 19.59375 -0.835938 19.1875 -0.421875 C 18.78125 -0.015625 18.265625 0.1875 17.640625 0.1875 C 17.015625 0.1875 16.488281 -0.015625 16.0625 -0.421875 C 15.644531 -0.835938 15.4375 -1.359375 15.4375 -1.984375 L 15.4375 -10.796875 C 15.4375 -12.304688 15.082031 -13.457031 14.375 -14.25 C 13.664062 -15.039062 12.664062 -15.4375 11.375 -15.4375 C 10.082031 -15.4375 9.046875 -15.03125 8.265625 -14.21875 C 7.484375 -13.40625 7.09375 -12.242188 7.09375 -10.734375 L 7.09375 -1.984375 C 7.09375 -1.359375 6.878906 -0.835938 6.453125 -0.421875 C 6.035156 -0.015625 5.515625 0.1875 4.890625 0.1875 C 4.296875 0.1875 3.785156 -0.015625 3.359375 -0.421875 C 2.941406 -0.835938 2.734375 -1.359375 2.734375 -1.984375 L 2.734375 -24.296875 C 2.734375 -24.898438 2.9375 -25.410156 3.34375 -25.828125 C 3.75 -26.242188 4.265625 -26.453125 4.890625 -26.453125 Z M 4.890625 -26.453125 "/></g></g><g style="fill:#d9d9d9;fill-opacity:1;"><g transform="translate(269.951895, 244.04156)"><path style="stroke:none" d="M 1.6875 -9.5 C 1.6875 -10.875 1.914062 -12.160156 2.375 -13.359375 C 2.832031 -14.554688 3.472656 -15.601562 4.296875 -16.5 C 5.128906 -17.40625 6.109375 -18.113281 7.234375 -18.625 C 8.359375 -19.144531 9.609375 -19.40625 10.984375 -19.40625 C 12.492188 -19.40625 13.8125 -19.125 14.9375 -18.5625 C 16.0625 -18 17.003906 -17.265625 17.765625 -16.359375 C 18.523438 -15.460938 19.085938 -14.460938 19.453125 -13.359375 C 19.828125 -12.253906 20.015625 -11.148438 20.015625 -10.046875 C 20.015625 -9.421875 19.8125 -8.914062 19.40625 -8.53125 C 19 -8.144531 18.519531 -7.953125 17.96875 -7.953125 L 6.046875 -7.953125 C 6.285156 -6.367188 6.894531 -5.164062 7.875 -4.34375 C 8.863281 -3.53125 10.078125 -3.125 11.515625 -3.125 C 12.429688 -3.125 13.253906 -3.273438 13.984375 -3.578125 C 14.710938 -3.878906 15.390625 -4.28125 16.015625 -4.78125 C 16.179688 -4.90625 16.34375 -5.003906 16.5 -5.078125 C 16.65625 -5.148438 16.867188 -5.1875 17.140625 -5.1875 C 17.617188 -5.1875 18.023438 -5.015625 18.359375 -4.671875 C 18.691406 -4.335938 18.859375 -3.921875 18.859375 -3.421875 C 18.859375 -3.160156 18.804688 -2.90625 18.703125 -2.65625 C 18.597656 -2.414062 18.457031 -2.226562 18.28125 -2.09375 C 17.414062 -1.320312 16.4375 -0.707031 15.34375 -0.25 C 14.257812 0.207031 12.960938 0.4375 11.453125 0.4375 C 10.078125 0.4375 8.796875 0.195312 7.609375 -0.28125 C 6.421875 -0.769531 5.390625 -1.441406 4.515625 -2.296875 C 3.640625 -3.160156 2.945312 -4.195312 2.4375 -5.40625 C 1.9375 -6.625 1.6875 -7.96875 1.6875 -9.4375 Z M 6.015625 -10.84375 L 15.765625 -10.84375 C 15.691406 -11.53125 15.535156 -12.179688 15.296875 -12.796875 C 15.054688 -13.410156 14.734375 -13.9375 14.328125 -14.375 C 13.921875 -14.820312 13.4375 -15.175781 12.875 -15.4375 C 12.3125 -15.707031 11.664062 -15.84375 10.9375 -15.84375 C 9.570312 -15.84375 8.457031 -15.382812 7.59375 -14.46875 C 6.726562 -13.5625 6.203125 -12.351562 6.015625 -10.84375 Z M 6.015625 -10.84375 "/></g></g><g style="fill:#d9d9d9;fill-opacity:1;"><g transform="translate(289.96793, 244.04156)"><path style="stroke:none" d="M 2.734375 -1.984375 L 2.734375 -17.03125 C 2.734375 -17.65625 2.9375 -18.175781 3.34375 -18.59375 C 3.75 -19.007812 4.265625 -19.21875 4.890625 -19.21875 C 5.515625 -19.21875 6.035156 -19.007812 6.453125 -18.59375 C 6.878906 -18.175781 7.09375 -17.65625 7.09375 -17.03125 L 7.09375 -15.078125 C 7.59375 -16.304688 8.273438 -17.3125 9.140625 -18.09375 C 10.003906 -18.875 10.914062 -19.265625 11.875 -19.265625 C 12.570312 -19.265625 13.109375 -19.054688 13.484375 -18.640625 C 13.859375 -18.234375 14.046875 -17.71875 14.046875 -17.09375 C 14.046875 -16.519531 13.875 -16.050781 13.53125 -15.6875 C 13.195312 -15.332031 12.789062 -15.109375 12.3125 -15.015625 C 10.726562 -14.722656 9.460938 -13.976562 8.515625 -12.78125 C 7.566406 -11.582031 7.09375 -9.851562 7.09375 -7.59375 L 7.09375 -1.984375 C 7.09375 -1.378906 6.878906 -0.863281 6.453125 -0.4375 C 6.035156 -0.0195312 5.515625 0.1875 4.890625 0.1875 C 4.296875 0.1875 3.785156 -0.015625 3.359375 -0.421875 C 2.941406 -0.835938 2.734375 -1.359375 2.734375 -1.984375 Z M 2.734375 -1.984375 "/></g></g></g></svg>