<svg xmlns="http://www.w3.org/2000/svg" xmlns:xlink="http://www.w3.org/1999/xlink" width="500" zoomAndPan="magnify" viewBox="0 0 375 374.999991" height="500" preserveAspectRatio="xMidYMid meet" version="1.2"><defs><clipPath id="17f18a39ba"><path d="M 118 260 L 316.617188 260 L 316.617188 312 L 118 312 Z M 118 260 "/></clipPath><clipPath id="1f2bf2648c"><path d="M 197 63.128906 L 238 63.128906 L 238 144 L 197 144 Z M 197 63.128906 "/></clipPath></defs><g id="9f99d6a6eb"><rect x="0" width="375" y="0" height="374.999991" style="fill:#ffffff;fill-opacity:1;stroke:none;"/><rect x="0" width="375" y="0" height="374.999991" style="fill:#283c10;fill-opacity:1;stroke:none;"/><g clip-rule="nonzero" clip-path="url(#17f18a39ba)"><path style=" stroke:none;fill-rule:nonzero;fill:#d9d9d9;fill-opacity:1;" d="M 154.253906 260.839844 C 155.507812 262.25 156.792969 263.613281 158.109375 264.929688 C 143.496094 268.546875 134.480469 273.5 134.480469 278.960938 C 134.480469 290.046875 171.613281 299.03125 217.414062 299.03125 C 263.214844 299.03125 300.34375 290.046875 300.34375 278.960938 C 300.34375 273.121094 290.050781 267.871094 273.617188 264.199219 C 274.917969 262.878906 276.183594 261.515625 277.410156 260.109375 C 301.101562 265.359375 316.394531 273.652344 316.394531 282.980469 C 316.394531 298.867188 272.082031 311.742188 217.414062 311.742188 C 162.75 311.742188 118.429688 298.867188 118.429688 282.980469 C 118.429688 274.074219 132.371094 266.113281 154.253906 260.839844 "/></g><path style=" stroke:none;fill-rule:nonzero;fill:#d9d9d9;fill-opacity:1;" d="M 96.238281 167.050781 C 111.238281 163.382812 126.566406 168.867188 137.488281 180.1875 C 159.128906 187.585938 195.292969 188.113281 234.8125 180.089844 C 257.328125 175.519531 277.757812 168.816406 294.332031 161.078125 C 296.835938 170.152344 298.1875 179.808594 298.1875 189.832031 C 298.1875 242.308594 261.1875 284.847656 215.542969 284.847656 C 171.332031 284.847656 138.210938 251.316406 133.003906 194.476562 C 125.148438 183.378906 112.183594 177.472656 99.546875 180.566406 C 82.390625 184.761719 72.332031 203.929688 77.09375 223.378906 C 81.847656 242.832031 97.324219 265.121094 128.6875 261.292969 C 125.988281 262.675781 123.117188 263.773438 120.074219 264.519531 C 96.335938 270.320312 71.75 253.207031 65.167969 226.296875 C 58.585938 199.382812 72.5 172.855469 96.238281 167.050781 "/><path style=" stroke:none;fill-rule:nonzero;fill:#27963c;fill-opacity:1;" d="M 258.019531 131.550781 C 258.019531 131.550781 240.730469 145.066406 236.550781 171.128906 C 257.828125 173.023438 259.550781 153.539062 262.699219 138.863281 C 264.507812 130.414062 272.679688 123.339844 272.679688 123.339844 C 272.679688 123.339844 215.5 128.207031 229.519531 169.886719 C 229.519531 169.886719 236.46875 141.296875 258.019531 131.550781 "/><path style=" stroke:none;fill-rule:nonzero;fill:#27963c;fill-opacity:1;" d="M 176.441406 131.550781 C 176.441406 131.550781 193.734375 145.066406 197.910156 171.128906 C 176.636719 173.023438 174.910156 153.539062 171.765625 138.863281 C 169.953125 130.414062 161.785156 123.339844 161.785156 123.339844 C 161.785156 123.339844 218.964844 128.207031 204.941406 169.886719 C 204.941406 169.886719 197.992188 141.296875 176.441406 131.550781 "/><g clip-rule="nonzero" clip-path="url(#1f2bf2648c)"><path style=" stroke:none;fill-rule:nonzero;fill:#27963c;fill-opacity:1;" d="M 213.804688 81.84375 C 213.804688 81.84375 225.40625 108.035156 214.199219 140.617188 C 188.53125 129.71875 198.519531 106.226562 203.925781 87.390625 C 207.035156 76.542969 201.976562 63.371094 201.976562 63.371094 C 201.976562 63.371094 264.832031 104.132812 223.058594 143.507812 C 223.058594 143.507812 232.625 106.3125 213.804688 81.84375 "/></g></g></svg>